<?xml version="1.0" encoding="utf-8"?>
<!-- Generator: Adobe Illustrator 26.2.1, SVG Export Plug-In . SVG Version: 6.00 Build 0)  -->
<svg version="1.1" id="Layer_2_00000124864874760037328640000000762710263078022538_"
	 xmlns="http://www.w3.org/2000/svg" xmlns:xlink="http://www.w3.org/1999/xlink" x="0px" y="0px" viewBox="0 0 214.7 24.6"
	 style="enable-background:new 0 0 214.7 24.6;" xml:space="preserve">
<style type="text/css">
	.st0{fill:#472F85;}
</style>
<g id="Layer_1-2">
	<path class="st0" d="M138.9,6.6c2.2,2.7,4.2,5.6,6.4,8.3c0-2.6,0.1-5.1-0.1-7.7c0.4,0,0.9,0,1.3,0c-0.2,3.6,0,7.3-0.1,10.9
		c-2.2-2.7-4.3-5.5-6.4-8.3c0,2.3,0,4.6,0,6.9c0,0.4,0.1,0.8,0.1,1.2c-0.5,0-0.9,0-1.4,0c0.1-1,0.1-2,0.1-3
		C138.9,12.2,138.9,9.4,138.9,6.6L138.9,6.6L138.9,6.6z M0,17.9c1.7-3.6,3.1-7.3,4.7-11c1.8,3.6,3.3,7.4,5.1,11c-0.5,0-1.1,0-1.6,0
		c-0.2-1-0.7-1.9-1.1-2.9c-1.6,0-3.1,0-4.6,0c-0.3,1-0.9,1.9-1.1,2.9L0,17.9L0,17.9z M2.9,13.9c1.3,0,2.5,0,3.8,0
		c-0.6-1.5-1.3-3-1.9-4.6C4.1,10.9,3.6,12.4,2.9,13.9L2.9,13.9z M13.2,7.2c1-0.4,2,0,3,0.1c0,0.5,0,1,0,1.5
		c-0.6-0.4-1.4-0.8-2.2-0.6c-1,0.2-1.5,1.6-0.7,2.3c1.2,0.9,2.7,1.4,3.5,2.7c0.8,1.5,0.3,3.6-1.1,4.5c-0.8,0.5-1.8,0.8-2.8,0.5
		c-0.5-0.1-0.9-0.2-1.4-0.1c0-0.6,0-1.2,0-1.7c1.1,1,3,1.1,4,0c0.7-0.8,0.8-2.2,0-3c-0.9-1-2.4-1.3-3.3-2.3
		C11.3,9.7,11.8,7.7,13.2,7.2L13.2,7.2z M27.1,7c1.1,0.5,2.3-0.3,3.4,0.1c1.9,0.4,3.2,2.6,2.5,4.5c-0.2,0.6-0.8,1.1-1.3,1.4
		c1.2,0.2,2.2,1.3,2.6,2.4c0.4,0.8,0.4,1.7,0.5,2.6c-0.5,0-0.9,0-1.4,0c0.3-1.3-0.2-2.7-1.2-3.5c-0.9-0.7-2-1.2-3.1-1.4
		c0.8-0.2,1.7-0.4,2.3-1c1-1,0.7-2.9-0.6-3.5c-0.8-0.5-1.7-0.3-2.6-0.1c0,2.7,0,5.4,0,8.2c0,0.5,0,0.9,0.1,1.4c-0.5,0-0.9,0-1.4,0
		c0.2-1.1,0.1-2.1,0.1-3.2C27.1,12.1,27.2,9.6,27.1,7L27.1,7L27.1,7z M41.4,7.1c2.5-0.6,5.3,0.8,6.3,3.1c0.9,1.8,0.6,4-0.6,5.6
		c-1.1,1.4-2.8,2.3-4.6,2.3c-1.6,0-3.1-0.7-4.2-1.9c-1.1-1.2-1.7-3-1.4-4.6C37.3,9.4,39.2,7.5,41.4,7.1L41.4,7.1z M41.8,8.2
		c-1.8,0.3-3.3,1.7-3.6,3.5c-0.5,2,0.7,4.2,2.7,5c2.1,1,4.9-0.1,5.9-2.2c0.8-1.6,0.4-3.8-0.9-5C44.7,8.4,43.2,7.9,41.8,8.2L41.8,8.2
		z M62.7,7.2c2.5-0.8,5.5,0.5,6.7,2.9c0.8,1.6,0.8,3.5-0.1,5.1c-1.2,2.3-4,3.5-6.5,2.8c-2.4-0.6-4.2-2.9-4.2-5.3
		C58.5,10.2,60.3,7.8,62.7,7.2L62.7,7.2z M63.4,8.2c-1.7,0.3-3.1,1.6-3.6,3.3c-0.6,2,0.5,4.3,2.4,5.1c2.1,1.1,5,0.1,6-2.1
		c0.8-1.6,0.4-3.8-0.9-5.1C66.4,8.5,64.9,7.9,63.4,8.2C63.4,8.2,63.4,8.2,63.4,8.2z M72.6,10.4c0.8-1.8,2.6-3.1,4.6-3.3
		c1.1-0.2,2.2,0.1,3.3,0.2c0,0.5,0,1,0,1.5c-1.4-0.6-3-0.8-4.4-0.2c-1.8,0.8-3,2.9-2.6,4.9c0.3,1.5,1.4,2.8,2.9,3.3
		c1.3,0.5,2.8,0.3,4-0.2c0-1.1,0-2.3,0-3.4c-1.1,0-2.1-0.1-3.2,0.1c0-0.4,0-0.8,0-1.2c1.4,0.3,2.9,0,4.4,0.1c0,1.7-0.1,3.4,0,5.1
		c-1.9,1-4.2,1.4-6.1,0.4C72.7,16.5,71.5,13,72.6,10.4L72.6,10.4z M91.1,7.2c0.6,0,1.1,0,1.7,0c-1.2,1.7-2.5,3.5-3.7,5.2
		c-0.4,0.5-0.2,1.2-0.3,1.9c0.1,1.2-0.1,2.5,0.2,3.7c-0.5,0-1,0-1.5,0c0.3-0.9,0.1-1.9,0.2-2.8c0-0.8,0.1-1.6-0.1-2.4
		c-1.2-1.9-2.5-3.7-3.8-5.5c0.6,0,1.1,0,1.7,0c0.1,0.3,0.2,0.6,0.3,0.8c0.8,1.2,1.6,2.5,2.5,3.7C89.2,10.2,90.4,8.8,91.1,7.2
		L91.1,7.2L91.1,7.2z M123.1,17.9c1.7-3.6,3.1-7.3,4.7-11c1.8,3.6,3.3,7.4,5.1,11c-0.5,0-1.1,0-1.6,0c-0.2-1-0.7-1.9-1.1-2.9
		c-1.6,0-3.1,0-4.6,0c-0.3,1-0.9,1.9-1.1,2.9C124.1,17.9,123.6,17.9,123.1,17.9C123.1,17.9,123.1,17.9,123.1,17.9z M126,13.9
		c1.3,0,2.5,0,3.8,0c-0.6-1.5-1.3-3-1.9-4.5C127.2,10.9,126.6,12.4,126,13.9L126,13.9L126,13.9z M154.9,7.2c1-0.4,2,0,3,0
		c0,0.5,0,1,0,1.5c-0.6-0.4-1.2-0.8-2-0.7c-1.1,0-1.8,1.6-0.9,2.3c1.2,0.9,2.9,1.4,3.6,2.9c0.7,1.4,0.3,3.4-1,4.3
		c-0.8,0.6-1.9,0.9-2.9,0.6c-0.5-0.1-1-0.2-1.4-0.1c0-0.6,0-1.2,0-1.8c1.2,1.1,3.4,1.1,4.3-0.4c0.4-0.8,0.4-2-0.3-2.7
		c-0.9-1-2.5-1.3-3.4-2.4C153,9.6,153.5,7.7,154.9,7.2L154.9,7.2L154.9,7.2z M167.7,7.2c0.6,0,1.1,0.1,1.7,0
		c-0.2,0.4-0.1,0.8,0.1,1.1c1.1,2.4,2,4.9,3.1,7.4c0.8-2.1,1.6-4.2,2.5-6.4c0.2-0.7,0.6-1.3,0.6-2.1c0.5,0,1.1,0,1.6,0
		c-0.7,1.1-1,2.3-1.5,3.4c-1.1,2.5-2,5.1-3.2,7.6c-0.6-1.5-1.3-2.9-1.9-4.4c-0.6,1.4-1.2,2.9-1.8,4.4c-1.8-3.6-3.2-7.4-5-10.9
		c0.5,0,1,0,1.5,0c0.2,1.1,0.8,2.1,1.2,3.2c0.8,1.8,1.4,3.6,2.2,5.3c0.4-1.1,0.9-2.1,1.2-3.2C169.3,10.7,168.6,8.9,167.7,7.2
		L167.7,7.2L167.7,7.2z M195.6,7c0.6,0.2,1.2,0.2,1.8,0c1.3-0.3,2.7,0.2,3.5,1.3c1.1,1.4,0.9,3.8-0.8,4.6c1.2,0.2,2.1,1.2,2.6,2.3
		c0.4,0.8,0.4,1.7,0.6,2.6c-0.5,0-0.9,0-1.4,0c0.3-1.3-0.2-2.7-1.2-3.5c-0.9-0.7-2-1.2-3.1-1.4c0.9-0.3,1.9-0.5,2.5-1.3
		c0.8-1.1,0.4-2.8-0.9-3.3c-0.8-0.4-1.6-0.2-2.4,0c0,2.4,0,4.8,0,7.2c0,0.8-0.1,1.6,0.1,2.3c-0.5,0-0.9,0-1.4,0
		c0.2-1.1,0.1-2.2,0.1-3.2C195.7,12.2,195.7,9.6,195.6,7L195.6,7z M209.6,10.7c-0.8-1.2-0.1-3.1,1.3-3.6c0.9-0.3,1.9,0.1,2.9,0.1
		c0,0.5,0,1,0,1.5c-0.6-0.4-1.3-0.8-2-0.7c-0.8,0-1.4,0.9-1.3,1.6c0.2,0.8,1,1.1,1.6,1.5c1.1,0.6,2.4,1.5,2.6,2.8
		c0.4,1.8-0.9,3.8-2.7,4.1c-1,0.3-2-0.4-2.9-0.1c0-0.6,0-1.2,0-1.8c1.1,1,2.8,1.1,3.9,0.1c0.9-0.8,0.9-2.3,0.1-3.1
		C212,12.1,210.4,11.9,209.6,10.7L209.6,10.7L209.6,10.7z M19,7.2c2,0,3.9,0,5.9,0c0,0.4,0,0.8,0,1.2c-0.8-0.2-1.6-0.1-2.4-0.1
		c0,2.8,0,5.7,0,8.5c0,0.4,0,0.8,0.1,1.2c-0.5,0-0.9,0-1.4,0c0.2-3.2,0-6.4,0.1-9.7c-0.8,0-1.6-0.1-2.4,0.2C19,8,19,7.6,19,7.2
		L19,7.2z M51.2,7.2c0.4,0,0.9,0,1.3,0c-0.2,3.2-0.1,6.5-0.1,9.7c1.4-0.1,2.9,0.2,4.2-0.2c0,0.4,0,0.8,0,1.2c-1.8,0-3.7,0-5.5,0
		c0.2-1.5,0.1-2.9,0.1-4.4C51.3,11.4,51.4,9.3,51.2,7.2L51.2,7.2z M183.3,7.2c1.9,0,3.9,0,5.9,0c0,0.4,0,0.7,0,1.1
		c-1.5-0.1-3.1-0.1-4.6-0.1c0,1.3,0,2.5,0,3.8c1.1,0,2.3,0.1,3.4-0.1c0,0.4,0,0.8,0,1.3c-1.1-0.2-2.3-0.1-3.4-0.1c0,1.3,0,2.5,0,3.8
		c1.5,0,3.1,0.1,4.6-0.1c0,0.4,0,0.7,0,1.1c-1.9,0-3.9,0-5.9,0c0.2-1.6,0.1-3.2,0.1-4.8C183.4,11.1,183.5,9.1,183.3,7.2L183.3,7.2z
		 M106.3,12.3c0.1-3.4,0-6.8,0-10.2c0-0.4,0-0.8-0.1-1.1c-0.5-0.6-1.2-0.7-1.9-0.8c-1.7-0.2-3.5-0.2-4.9,0.9c-0.5,0.4-1.1,1-1,1.7
		c0,3.2,0,6.4-0.1,9.6h-0.3c-0.2,0-0.4,0-0.5,0h-2.7v1.1h3.5c0.1,3,0,6.1,0.1,9.2c0.1,1.2,1.3,1.9,2.4,2c0.1-3.7,0.1-7.5,0.1-11.2
		h0.4c1,0,2,0,3,0c0.1,3.4,0.1,6.8,0.1,10.2c0.7,0,1.3,0,2,0c0-3.4,0-6.8-0.1-10.2c0.1,0,0.1,0,0.2,0h0.8c0,3.4,0,6.8,0,10.2h2.1
		c0-3.4,0-6.8,0-10.2c0.3,0,0.6,0,0.9,0h2.5c-0.1,3.7,0,7.5,0,11.2c1.1-0.1,2.4-0.8,2.5-2.1c0-3,0-6.1,0-9.1h3.2v-1.1h-3.2
		c-0.2-3.3-0.1-6.6,0-9.8c-0.4-1.3-1.8-2.1-3-2.3c-1.2-0.2-2.5-0.2-3.7,0.2c-0.5,0.2-1.2,0.4-1.1,1c0,3.7-0.1,7.3-0.1,10.9
		 M109.3,1.1c0.7-0.1,1.5-0.2,2.2,0c0.8,0.2,1.3,1,1.3,1.8c0,3.1,0,6.2,0,9.4c-0.2,0-0.3,0-0.4,0h-3C109.2,8.6,109.3,4.9,109.3,1.1
		L109.3,1.1L109.3,1.1z M104.3,12.3c-1.1,0-2.2,0-3.4,0c-0.2-3.1-0.1-6.2-0.1-9.4c0-0.8,0.5-1.6,1.3-1.8c0.7-0.2,1.5-0.1,2.2,0"/>
</g>
</svg>
