<svg width="160" height="235" viewBox="0 0 160 235" fill="none" xmlns="http://www.w3.org/2000/svg">
<rect y="65" width="160" height="170" rx="20" fill="#EDCCE9"/>
<path d="M38.4473 142.486L41.0156 141.471C41.8066 144.537 43.125 147.594 44.5605 150.416C50.3418 161.734 59.9023 171.1 70.8106 177.496L79.2285 181.656C79.0137 181.637 78.8086 181.617 78.5938 181.637C77.1973 181.754 75.7227 181.666 74.3066 181.666L65.6543 181.676H38.7598L21.4746 181.686H10.0391C11.0156 173.707 12.6953 165.377 16.0645 158.053C17.1484 155.689 18.5645 153.375 20.498 151.607C22.0508 150.172 24.0332 149.176 25.8887 148.189C29.9219 146.031 34.1504 144.078 38.4473 142.486Z" fill="#CD8BF7"/>
<path d="M21.4746 181.686C24.6289 172.047 29.3359 162.564 35.8105 154.713L35.8496 154.82C33.1152 159.176 32.6465 164.439 33.7695 169.391C34.4629 172.437 35.5859 175.309 36.9531 178.111C37.5391 179.283 38.2617 180.465 38.7598 181.676L21.4746 181.686Z" fill="#CE8BF4"/>
<path d="M118.389 141.1C119.434 141.354 120.439 141.861 121.416 142.311L132.705 147.555C134.502 148.424 136.543 149.312 138.164 150.484C142.158 153.355 144.355 158.668 145.957 163.18C148.086 169.156 149.346 175.396 150.127 181.686L139.023 181.676L121.504 181.666L80.6543 181.676C81.5332 181.373 82.3926 180.943 83.2422 180.562C85.332 179.625 87.3535 178.57 89.3066 177.369C92.3438 175.494 95.4004 173.482 98.1836 171.236C105.078 165.67 110.654 158.805 114.609 150.875C116.152 147.789 117.598 144.469 118.389 141.1Z" fill="#CE8BF4"/>
<path d="M121.504 181.666L121.572 181.578C122.402 180.387 123.066 179.029 123.652 177.701C125.947 172.506 126.602 166.705 125.586 161.1C125.195 158.951 124.6 156.832 123.799 154.791L122.744 152.408C124.629 154.615 126.25 157.203 127.803 159.654C131.758 165.895 135.479 172.457 138.125 179.371C138.379 180.035 138.955 180.992 139.023 181.676L121.504 181.666Z" fill="#CE8BF4"/>
<path d="M38.4473 142.486C36.5527 139.84 34.8926 136.891 33.7695 133.844C33.0859 132.008 32.6465 130.182 32.168 128.297C32.0996 129.303 32.2363 130.357 32.3242 131.363C32.666 135.367 33.584 139.215 34.4727 143.121C27.959 136.441 24.7754 126.363 25.5371 117.144L25.918 113.805L26.2207 112.047C26.2598 111.822 26.3672 111.52 26.2988 111.295C24.2969 112.027 22.2266 112.477 20.0879 112.535C16.1035 112.633 12.1875 111.773 8.57422 110.123C6.99219 109.4 5.50781 108.59 4.23828 107.389C7.2168 108.473 10.4883 108.287 13.5352 107.525C20.0098 105.904 25.6934 101.383 29.1016 95.6894C31.543 91.6269 32.8027 87.2812 32.2266 82.5156C32.041 80.9629 31.6406 79.4394 31.2695 77.9258C30.8594 76.2656 30.459 74.625 29.9219 73.0039C28.5742 68.9414 26.8848 65.0449 25.8398 60.875C23.2129 50.4648 24.2383 39.332 29.8242 30.0351C33.3105 24.2441 38.3887 19.3027 44.4238 16.2265C45.4297 15.7187 46.4453 15.2598 47.5098 14.8984C47.8906 14.7715 48.877 14.625 49.1406 14.4199C49.4238 14.1953 49.7656 13.3848 50 13.043C50.4492 12.418 50.9961 11.8418 51.5918 11.3535C52.9004 10.2988 54.4141 9.38085 55.8496 8.5117C60.8594 5.4746 66.1035 3.23827 71.8066 1.81249C84.1504 -1.27345 97.002 0.46483 107.93 7.0371C123.438 16.3828 131.982 34.1074 133.291 51.7441C133.604 56.0215 133.584 60.2597 132.939 64.5078C132.588 66.832 132.08 69.3222 131.26 71.5195C130.771 72.8379 130.107 74.0781 129.668 75.416C128.184 79.8789 127.861 85.0156 129.014 89.5957C130.654 96.1582 134.619 101.539 140.449 104.996C144.912 107.643 150.361 108.893 155.449 107.603L151.836 109.879C148.32 111.637 144.365 112.369 140.459 112.359C138.145 112.359 135.84 112.115 133.633 111.393C133.584 111.617 133.76 112.086 133.818 112.33L134.219 114.439C134.541 116.529 134.697 118.717 134.629 120.836C134.473 125.982 133.203 131.324 130.605 135.807C129.883 137.057 128.994 138.219 128.105 139.352C127.188 140.514 126.27 141.646 125.195 142.662C127.451 138.639 127.969 134.049 127.354 129.518C126.641 132.154 125.83 134.664 124.59 137.096C123.662 138.912 122.52 140.611 121.416 142.311C120.439 141.861 119.434 141.353 118.389 141.1C117.598 144.469 116.152 147.789 114.609 150.875C110.654 158.805 105.078 165.67 98.1836 171.236C95.4004 173.482 92.3438 175.494 89.3066 177.369C87.3535 178.57 85.332 179.625 83.2422 180.562C82.3926 180.943 81.5332 181.373 80.6543 181.676C80.1758 181.812 79.6973 181.773 79.2285 181.656L70.8105 177.496C59.9023 171.1 50.3418 161.734 44.5605 150.416C43.125 147.594 41.8066 144.537 41.0156 141.471L38.4473 142.486Z" fill="#2B2537"/>
<path d="M46.9434 85.5723C47.0215 85.8066 47.0117 85.6797 46.9531 85.9336C45.9277 86.3926 44.6973 86.4805 43.584 86.3535C42.9004 86.2851 42.1289 85.9238 41.5234 85.6015C39.1797 84.3711 37.3828 82.6035 35.8203 80.4941C33.457 77.3008 32.0508 73.1797 32.6758 69.1855C33.0176 66.998 34.1406 64.7129 35.9863 63.4043C37.6367 62.2422 39.5996 62.1152 41.5332 62.4863L41.7383 64.7129C39.9902 65.0156 38.5937 65.7676 37.5488 67.2324C36.2109 69.1269 35.8398 71.9004 36.2598 74.1758C36.8164 77.2226 38.4863 80.1523 41.0351 81.9785C42.666 83.1601 44.2187 83.8535 46.25 83.9609L46.9434 85.5723Z" fill="#F1BCA2"/>
<path d="M46.25 83.9609C44.2187 83.8535 42.666 83.1601 41.0352 81.9785C38.4863 80.1523 36.8164 77.2226 36.2598 74.1758C35.8398 71.9004 36.2109 69.1269 37.5488 67.2324C38.5937 65.7676 39.9902 65.0156 41.7383 64.7129C42.3242 71.334 43.7695 77.7891 46.25 83.9609Z" fill="#CF9076"/>
<path d="M118.232 66.3828L118.574 62.5547C121.318 62.5547 123.262 62.8574 125.283 64.8887C126.924 66.539 127.744 68.9512 127.744 71.2461C127.725 75.3769 125.303 79.4394 122.412 82.2519C120.449 84.1562 117.861 85.9043 115.137 86.4023C114.473 86.5293 113.77 86.5098 113.105 86.5293L112.998 86.373L113.174 85.9141L114.131 83.5898L115.674 78.5801L115.703 78.5605C116.143 77.4082 116.416 76.1484 116.689 74.9473L118.232 66.3828Z" fill="#F1BCA2"/>
<path d="M118.232 66.3828C118.623 66.7441 119.766 66.832 120.332 66.9883C122.598 67.6523 123.975 69.7519 124.092 72.0371C124.229 74.791 122.754 77.7988 120.908 79.791C119.043 81.8027 116.836 83.0722 114.131 83.5898L115.674 78.5801L115.703 78.5605C116.143 77.4082 116.416 76.1484 116.689 74.9472L118.232 66.3828Z" fill="#CF9076"/>
<path d="M41.5332 62.4863L41.9531 52.3789C43.0371 43.1797 47.1289 32.9941 54.5703 27.1152C55.8203 26.1289 57.1289 25.25 58.5254 24.498C58.6035 24.459 59.0723 24.1855 59.1211 24.1855C59.1406 24.1855 59.5703 24.6543 59.6191 24.7031C62.1875 27.3887 65.2441 29.6445 68.2422 31.8223L80.9375 40.2109C94.1602 48.082 108.682 54 123.75 57.1641C126.895 57.8184 130.068 58.4434 133.252 58.8144C132.139 59.1269 130.684 58.9609 129.512 58.9707L122.373 58.9805C122.227 58.9805 122.1 58.9121 121.953 58.8926C121.445 58.8242 120.879 58.9609 120.371 58.8828C119.717 58.7754 119.102 58.8633 118.467 58.7851C117.92 58.7168 117.422 58.6875 116.865 58.6875L116.797 62.2324L116.68 62.291C116.807 61.4512 116.748 60.543 116.748 59.6836C116.748 59.2832 116.807 58.9902 116.611 58.6289L100.195 53.5703C99.6777 53.248 99.0723 53.082 98.5156 52.8476C97.5 52.4277 96.4941 51.9785 95.4492 51.6172C93.7988 50.9922 92.1973 50.0644 90.6152 49.2734C82.7734 45.3184 75.3418 40.1133 68.6523 34.4492L63.5547 29.8301L61.3184 31.6953C59.541 33.0723 57.8906 34.7422 56.3672 36.3828C51.3379 41.793 47.4512 47.8183 44.9316 54.7812C44.2188 56.7441 43.5547 58.8144 43.2813 60.8945C43.0176 62.8476 43.1445 65.0156 43.291 66.9687C43.75 73.3457 45.0195 79.2539 47.1094 85.2891L46.9434 85.5723L46.25 83.9609C43.7695 77.7891 42.3242 71.334 41.7383 64.7129L41.5332 62.4863Z" fill="#181319"/>
<path d="M61.3183 31.6953L63.5547 29.8301L68.6523 34.4492C75.3418 40.1133 82.7734 45.3183 90.6152 49.2734C92.1973 50.0644 93.7988 50.9922 95.4492 51.6172C96.4941 51.9785 97.5 52.4277 98.5156 52.8476C99.0723 53.082 99.6777 53.248 100.195 53.5703L116.611 58.6289L116.514 65.0254L115.801 73.1016L115.488 75.25C115.459 75.4453 115.332 75.8945 115.381 76.0801L113.779 82.8965C113.545 83.7656 113.301 84.8691 112.9 85.6894C111.553 88.9512 109.854 91.8809 107.793 94.7422L105.254 98.0039C103.379 100.113 101.484 102.125 99.3164 103.941L96.8848 105.855C96.5137 106.139 96.0644 106.412 95.7226 106.744C91.2793 109.713 86.6992 112.77 81.3086 113.707C79.3945 114.039 77.5195 113.619 75.6934 113.033C71.25 111.607 67.5293 109.127 63.7402 106.49C62.7441 105.494 61.4551 104.654 60.3613 103.746C58.6523 102.33 57.0996 100.738 55.6543 99.0684C52.2949 94.7812 48.9551 90.4844 47.1094 85.2891C45.0195 79.2539 43.75 73.3457 43.291 66.9687C43.1445 65.0156 43.0176 62.8476 43.2812 60.8945C43.5547 58.8144 44.2187 56.7441 44.9316 54.7812C47.4512 47.8183 51.3379 41.793 56.3672 36.3828C57.8906 34.7422 59.541 33.0723 61.3183 31.6953Z" fill="#F1BCA2"/>
<path d="M99.6112 66.0531C99.6112 68.2875 98.3642 70.1061 96.8056 70.1061C95.2989 70.1061 94 68.2875 94 66.0531C94 63.8187 95.2989 62 96.8056 62C98.3642 62 99.6112 63.8187 99.6112 66.0531Z" fill="#2B2537"/>
<path d="M65.6112 66.0531C65.6112 68.2875 64.3642 70.1061 62.8056 70.1061C61.2989 70.1061 60 68.2875 60 66.0531C60 63.8187 61.2989 62 62.8056 62C64.3642 62 65.6112 63.8187 65.6112 66.0531Z" fill="#2B2537"/>
<path d="M75.7422 85.1133C78.6035 85.4746 81.2988 85.3965 84.1602 85.1523C83.8867 85.5723 83.5352 85.9043 83.1738 86.2461C82.4023 86.8418 81.5723 87.418 80.5859 87.5352C79.2578 87.7012 78.1543 87.3789 77.1094 86.5586L76.9727 86.4512C76.4746 86.0605 76.1328 85.6113 75.7422 85.1133Z" fill="#B96D5A"/>
<path d="M72.1582 94.8105C76.9726 96.9199 82.0703 97.2422 87.0019 95.3086L88.1152 94.8496C87.793 95.416 86.6601 96.0508 86.0742 96.3828C83.5547 97.8379 80.9277 98.7949 78.0371 97.9941C76.2793 97.5058 74.6191 96.7051 73.1348 95.6504C72.7344 95.3574 72.4219 95.2695 72.1582 94.8105Z" fill="#CF9076"/>
<path d="M72.1582 94.8105C71.3184 94.3223 70.5762 93.7949 69.873 93.1309C72.0703 93.9805 74.375 94.2637 76.7188 94.4394C79.375 94.6445 81.9238 94.6055 84.5898 94.332C86.6113 94.1269 88.5059 93.8535 90.4297 93.209C89.707 93.7754 88.9453 94.4297 88.1152 94.8496L87.0019 95.3086C82.0703 97.2422 76.9727 96.9199 72.1582 94.8105Z" fill="#C1252A"/>
<path d="M59.1211 51.8418C59.6875 51.6758 60.6836 51.7539 61.2891 51.7637C64.9902 51.8223 68.0664 52.6621 71.3184 54.4101C70.5371 54.8203 69.7949 55.3183 69.0527 55.7871C68.877 55.9043 68.4766 56.2363 68.291 56.2754C68.1836 56.3047 67.5 55.9336 67.373 55.875C66.6699 55.5625 65.9473 55.2988 65.2148 55.0547C63.4277 54.4785 61.5723 54.2441 59.6973 54.0586C56.4844 53.9512 53.2715 54.2832 50.2246 55.3672C49.2285 55.7285 48.291 56.1973 47.3047 56.5879C50.7715 53.9121 54.7754 52.291 59.1211 51.8418Z" fill="#2B2537"/>
<path d="M95.4492 51.6172C96.4941 51.9785 97.5 52.4277 98.5156 52.8476C99.0723 53.082 99.6777 53.248 100.195 53.5703C97.3828 54.0879 94.4238 54.498 91.9727 56.0898C90.9375 55.6992 89.9609 54.7422 88.9551 54.2051C89.2578 53.8144 89.873 53.5898 90.3223 53.3848C91.9922 52.6426 93.7109 52.1738 95.4492 51.6172Z" fill="#2B2537"/>
<path d="M61.3184 31.6953L63.5547 29.8301L68.6523 34.4492C75.3418 40.1133 82.7734 45.3183 90.6152 49.2734C92.1973 50.0644 93.7988 50.9922 95.4492 51.6172C93.7109 52.1738 91.9922 52.6426 90.3223 53.3848C89.873 53.5898 89.2578 53.8144 88.9551 54.2051L88.6816 54.2246C87.002 53.5019 85.4199 52.5547 83.8477 51.6172C79.6875 49.1269 75.7812 46.2461 72.0898 43.0918C70.2246 41.5 68.3691 39.8691 66.6699 38.1015C64.7266 36.0801 63.0566 33.8828 61.3184 31.6953Z" fill="#CF9076"/>
<path d="M105.254 98.0039C105.547 98.209 105.664 98.6582 105.82 98.9805C106.025 99.4101 106.279 99.8301 106.523 100.23L110.137 106.705C112.949 111.979 115.596 117.604 116.719 123.512C117.129 125.67 117.402 127.926 117.48 130.123V140.748L118.389 141.1C117.598 144.469 116.152 147.789 114.609 150.875C110.654 158.805 105.078 165.67 98.1836 171.236C95.4004 173.482 92.3438 175.494 89.3066 177.369C87.3535 178.57 85.332 179.625 83.2422 180.562C82.3926 180.943 81.5332 181.373 80.6543 181.676C80.1758 181.812 79.6973 181.773 79.2285 181.656L70.8106 177.496C59.9023 171.1 50.3418 161.734 44.5605 150.416C43.125 147.594 41.8066 144.537 41.0156 141.471L44.4922 140.055L43.584 137.213C42.8027 134.41 42.5586 131.568 42.8223 128.668C43.6328 119.352 47.8906 110.562 52.9883 102.857L54.3262 100.885C54.7461 100.24 55.0488 99.5664 55.6543 99.0683C57.0996 100.738 58.6523 102.33 60.3613 103.746C61.4551 104.654 62.7441 105.494 63.7402 106.49C67.5293 109.127 71.25 111.607 75.6934 113.033C77.5195 113.619 79.3945 114.039 81.3086 113.707C86.6992 112.77 91.2793 109.713 95.7227 106.744C96.0645 106.412 96.5137 106.139 96.8848 105.855L99.3164 103.941C101.484 102.125 103.379 100.113 105.254 98.0039Z" fill="#CE8BF4"/>
<path d="M64.3555 118.033L64.3359 115.582L66.6602 117.105C73.3887 121.266 82.959 122.906 90.4492 120.016C91.6016 119.566 92.7051 119.02 93.7305 118.316C94.209 117.975 94.834 117.252 95.3711 117.115L95.4688 117.516L95.3809 120.787C95.3613 121.432 95.3125 122.096 95.4004 122.75C95.5664 122.906 95.5859 122.877 95.8008 122.906C95.459 123.492 94.4824 123.824 93.8769 124.117C91.3379 125.328 88.6816 126.334 85.9473 127.027L82.9199 127.643L80.5273 141.607L80.0977 145.201C80.0684 145.562 80.1367 146.246 79.9414 146.52C79.4434 140.279 78.9063 133.697 76.5723 127.838C75.6543 127.477 74.6484 127.281 73.7012 126.998L70.0586 125.758C68.7012 125.25 67.3926 124.654 66.0937 124.029C65.498 123.746 64.9121 123.385 64.2969 123.131L64.3555 118.033Z" fill="#CF9076"/>
<path d="M63.7402 106.49C67.5293 109.127 71.25 111.607 75.6934 113.033C77.5195 113.619 79.3945 114.039 81.3086 113.707C86.6992 112.77 91.2793 109.713 95.7227 106.744L95.4688 117.516L95.3711 117.115C94.834 117.252 94.209 117.975 93.7305 118.316C92.7051 119.02 91.6016 119.566 90.4492 120.016C82.959 122.906 73.3887 121.266 66.6602 117.105L64.3359 115.582L64.3555 118.033C64.1797 116.959 64.2871 115.738 64.248 114.635C64.1602 111.92 64.0625 109.186 63.7402 106.49Z" fill="#B96D5A"/>
<path d="M45.8008 139.527C51.2695 155.025 62.4512 168.15 77.3535 175.318L79.9219 176.471C92.5195 170.846 102.891 161.646 109.58 149.547L112.568 143.453L113.633 140.875C113.809 140.436 113.975 139.889 114.268 139.518L117.48 140.748L118.389 141.1C117.598 144.469 116.152 147.789 114.609 150.875C110.654 158.805 105.078 165.67 98.1836 171.236C95.4004 173.482 92.3438 175.494 89.3066 177.369C87.3535 178.57 85.332 179.625 83.2422 180.562C82.3926 180.943 81.5332 181.373 80.6543 181.676C80.1758 181.812 79.6973 181.773 79.2285 181.656L70.8106 177.496C59.9023 171.1 50.3418 161.734 44.5605 150.416C43.125 147.594 41.8066 144.537 41.0156 141.471L44.4922 140.055L45.8008 139.527Z" fill="#454895"/>
<path d="M44.4922 140.055L43.584 137.213C42.8027 134.41 42.5586 131.568 42.8223 128.668C43.6328 119.352 47.8906 110.562 52.9883 102.857L54.3262 100.885C54.7461 100.24 55.0488 99.5664 55.6543 99.0683C57.0996 100.738 58.6523 102.33 60.3613 103.746C61.4551 104.654 62.7441 105.494 63.7402 106.49C64.0625 109.186 64.1602 111.92 64.248 114.635C64.2871 115.738 64.1797 116.959 64.3555 118.033L64.2969 123.131C63.9844 123.062 63.6816 122.926 63.4082 123.092L62.8809 129.4C57.9395 133.697 51.8945 137.145 45.8008 139.527L44.4922 140.055Z" fill="#181319"/>
<path d="M105.254 98.0039C105.547 98.209 105.664 98.6582 105.82 98.9805C106.025 99.4101 106.279 99.8301 106.523 100.23L110.137 106.705C112.949 111.979 115.596 117.604 116.719 123.512C117.129 125.67 117.402 127.926 117.48 130.123V140.748L114.268 139.518C113.77 139.127 113.008 138.893 112.432 138.619L108.213 136.568C104.229 134.527 100.244 132.232 96.5137 129.742C96.416 129.146 96.543 128.365 96.5625 127.75L96.5918 123.287C96.3184 122.984 96.1914 122.994 95.8008 122.906C95.5859 122.877 95.5664 122.906 95.4004 122.75C95.3125 122.096 95.3613 121.432 95.3809 120.787L95.4688 117.516L95.7227 106.744C96.0645 106.412 96.5137 106.139 96.8848 105.855L99.3164 103.941C101.484 102.125 103.379 100.113 105.254 98.0039Z" fill="#181319"/>
<path d="M0 181H160V215C160 226.046 151.046 235 140 235H20C8.95431 235 0 226.046 0 215V181Z" fill="url(#paint0_linear_0_43)"/>
<path d="M24.007 201.151V202.409H18.856V206.404H23.038V207.662H18.856V213H17.309V201.151H24.007ZM34.3754 207.985C34.3754 208.28 34.3584 208.591 34.3244 208.92H26.8784C26.9351 209.838 27.2467 210.558 27.8134 211.079C28.3914 211.589 29.0884 211.844 29.9044 211.844C30.5731 211.844 31.1284 211.691 31.5704 211.385C32.0237 211.068 32.3411 210.648 32.5224 210.127H34.1884C33.9391 211.022 33.4404 211.753 32.6924 212.32C31.9444 212.875 31.0151 213.153 29.9044 213.153C29.0204 213.153 28.2271 212.955 27.5244 212.558C26.8331 212.161 26.2891 211.6 25.8924 210.875C25.4957 210.138 25.2974 209.288 25.2974 208.325C25.2974 207.362 25.4901 206.517 25.8754 205.792C26.2607 205.067 26.7991 204.511 27.4904 204.126C28.1931 203.729 28.9977 203.531 29.9044 203.531C30.7884 203.531 31.5704 203.724 32.2504 204.109C32.9304 204.494 33.4517 205.027 33.8144 205.707C34.1884 206.376 34.3754 207.135 34.3754 207.985ZM32.7774 207.662C32.7774 207.073 32.6471 206.568 32.3864 206.149C32.1257 205.718 31.7687 205.395 31.3154 205.18C30.8734 204.953 30.3804 204.84 29.8364 204.84C29.0544 204.84 28.3857 205.089 27.8304 205.588C27.2864 206.087 26.9747 206.778 26.8954 207.662H32.7774ZM47.6204 203.514C48.3457 203.514 48.9917 203.667 49.5584 203.973C50.1251 204.268 50.5727 204.715 50.9014 205.316C51.2301 205.917 51.3944 206.648 51.3944 207.509V213H49.8644V207.73C49.8644 206.801 49.6321 206.092 49.1674 205.605C48.7141 205.106 48.0964 204.857 47.3144 204.857C46.5097 204.857 45.8694 205.118 45.3934 205.639C44.9174 206.149 44.6794 206.891 44.6794 207.866V213H43.1494V207.73C43.1494 206.801 42.9171 206.092 42.4524 205.605C41.9991 205.106 41.3814 204.857 40.5994 204.857C39.7947 204.857 39.1544 205.118 38.6784 205.639C38.2024 206.149 37.9644 206.891 37.9644 207.866V213H36.4174V203.684H37.9644V205.027C38.2704 204.54 38.6784 204.166 39.1884 203.905C39.7097 203.644 40.2821 203.514 40.9054 203.514C41.6874 203.514 42.3787 203.69 42.9794 204.041C43.5801 204.392 44.0277 204.908 44.3224 205.588C44.5831 204.931 45.0137 204.421 45.6144 204.058C46.2151 203.695 46.8837 203.514 47.6204 203.514ZM53.354 208.308C53.354 207.356 53.5467 206.523 53.932 205.809C54.3174 205.084 54.8444 204.523 55.513 204.126C56.193 203.729 56.9467 203.531 57.774 203.531C58.59 203.531 59.2984 203.707 59.899 204.058C60.4997 204.409 60.9474 204.851 61.242 205.384V203.684H62.806V213H61.242V211.266C60.936 211.81 60.477 212.263 59.865 212.626C59.2644 212.977 58.5617 213.153 57.757 213.153C56.9297 213.153 56.1817 212.949 55.513 212.541C54.8444 212.133 54.3174 211.561 53.932 210.824C53.5467 210.087 53.354 209.249 53.354 208.308ZM61.242 208.325C61.242 207.622 61.1004 207.01 60.817 206.489C60.5337 205.968 60.1484 205.571 59.661 205.299C59.185 205.016 58.658 204.874 58.08 204.874C57.502 204.874 56.975 205.01 56.499 205.282C56.023 205.554 55.6434 205.951 55.36 206.472C55.0767 206.993 54.935 207.605 54.935 208.308C54.935 209.022 55.0767 209.645 55.36 210.178C55.6434 210.699 56.023 211.102 56.499 211.385C56.975 211.657 57.502 211.793 58.08 211.793C58.658 211.793 59.185 211.657 59.661 211.385C60.1484 211.102 60.5337 210.699 60.817 210.178C61.1004 209.645 61.242 209.028 61.242 208.325ZM66.9673 200.42V213H65.4203V200.42H66.9673ZM78.1039 207.985C78.1039 208.28 78.0869 208.591 78.0529 208.92H70.6069C70.6636 209.838 70.9753 210.558 71.5419 211.079C72.1199 211.589 72.8169 211.844 73.6329 211.844C74.3016 211.844 74.8569 211.691 75.2989 211.385C75.7523 211.068 76.0696 210.648 76.2509 210.127H77.9169C77.6676 211.022 77.1689 211.753 76.4209 212.32C75.6729 212.875 74.7436 213.153 73.6329 213.153C72.7489 213.153 71.9556 212.955 71.2529 212.558C70.5616 212.161 70.0176 211.6 69.6209 210.875C69.2243 210.138 69.0259 209.288 69.0259 208.325C69.0259 207.362 69.2186 206.517 69.6039 205.792C69.9893 205.067 70.5276 204.511 71.2189 204.126C71.9216 203.729 72.7263 203.531 73.6329 203.531C74.5169 203.531 75.2989 203.724 75.9789 204.109C76.6589 204.494 77.1803 205.027 77.5429 205.707C77.9169 206.376 78.1039 207.135 78.1039 207.985ZM76.5059 207.662C76.5059 207.073 76.3756 206.568 76.1149 206.149C75.8543 205.718 75.4973 205.395 75.0439 205.18C74.6019 204.953 74.1089 204.84 73.5649 204.84C72.7829 204.84 72.1143 205.089 71.5589 205.588C71.0149 206.087 70.7033 206.778 70.6239 207.662H76.5059Z" fill="white"/>
<path fill-rule="evenodd" clip-rule="evenodd" d="M141.694 207.808C141.89 207.992 142 208.241 142 208.5C142 208.759 141.89 209.008 141.694 209.192L135.774 214.725C135.576 214.904 135.312 215.002 135.037 215C134.763 214.998 134.501 214.895 134.307 214.713C134.112 214.532 134.002 214.287 134 214.03C133.998 213.774 134.103 213.527 134.294 213.342L139.474 208.5L134.294 203.658C134.103 203.473 133.998 203.226 134 202.97C134.002 202.713 134.112 202.468 134.307 202.286C134.501 202.105 134.763 202.002 135.037 202C135.312 201.998 135.576 202.096 135.774 202.275L141.694 207.808Z" fill="white"/>
<defs>
<linearGradient id="paint0_linear_0_43" x1="41.5" y1="208" x2="160" y2="216.5" gradientUnits="userSpaceOnUse">
<stop offset="0.182019" stop-color="#642A74"/>
<stop offset="1" stop-color="#B93F72"/>
</linearGradient>
</defs>
</svg>
