<svg width="160" height="252" viewBox="0 0 160 252" fill="none" xmlns="http://www.w3.org/2000/svg">
<rect y="100" width="160" height="152" rx="20" fill="#E4DAF2"/>
<path d="M0 198H160V232C160 243.046 151.046 252 140 252H20C8.95431 252 0 243.046 0 232V198Z" fill="#454895"/>
<path d="M91.4357 159.698H69.3028C69.3028 159.698 66.8609 148.682 70.186 145.512H90.8642C90.8642 145.512 93.6698 151.072 91.4357 159.698Z" fill="#006987"/>
<path d="M90.8647 159.698H70.1865V137.926H90.8647V159.698Z" fill="#FBC2A2"/>
<g style="mix-blend-mode:multiply">
<path d="M79.8502 149.981C83.1234 149.409 87.2798 149.305 90.8647 148.37V137.926H70.1865V156.788C71.1736 153.099 74.5507 150.864 79.8502 149.981Z" fill="#D1D2D3"/>
</g>
<path d="M44.3128 66.9447C43.5335 86.9502 43.5854 113.451 56.2626 129.923C65.9263 142.55 81.0453 144.473 94.8134 137.821C108.841 131.014 114.608 114.75 116.219 99.1614C117.83 83.9884 117.622 63.4112 108.062 51.0961C99.2816 39.6644 80.6296 39.9762 67.7447 41.7429C62.9128 42.4184 58.081 43.9773 54.0285 46.6793C54.0285 46.6793 44.8843 52.7589 44.3128 66.9447Z" fill="#FBC2A2"/>
<path d="M113.777 100.253C113.725 102.02 113.569 103.89 113.05 105.605C111.751 109.814 109.413 112.932 105.412 114.854C101.931 116.517 97.671 115.582 94.1899 114.698C88.4229 113.243 83.9028 113.243 78.2397 115.01C76.2654 115.634 73.9274 114.335 72.005 114.335C69.667 114.283 67.329 114.543 65.043 114.594C61.1464 114.802 57.2497 114.594 54.1843 111.996C49.0927 107.787 45.6117 100.98 44.6765 94.2771C45.8195 107.424 48.9368 120.362 56.2625 129.923C65.9262 142.55 81.0453 144.473 94.8134 137.822C108.841 131.015 114.608 114.75 116.219 99.1616C116.288 98.7113 116.34 98.2609 116.375 97.8106C114.972 98.1743 113.829 98.8498 113.777 100.253Z" fill="#3B2313"/>
<path d="M119.7 197.89L120.271 189.213H80.5252H40.7274L41.299 197.89H119.7Z" fill="#FBC2A2"/>
<path d="M125.103 97.187C124.791 101.916 121.466 105.605 117.621 105.397C113.777 105.137 110.919 101.084 111.231 96.3036C111.543 91.5231 114.868 87.8337 118.66 88.0936C122.505 88.3014 125.363 92.4064 125.103 97.187Z" fill="#FBC2A2"/>
<path d="M117.777 91.6791C117.777 91.731 117.725 91.6271 117.829 91.4712C117.933 91.3673 118.089 91.2114 118.349 91.0555C118.557 90.8996 118.868 90.6918 119.284 90.6398C119.7 90.5878 120.271 90.6398 120.739 90.8996C121.206 91.1594 121.622 91.5751 121.986 92.0428C122.297 92.5105 122.609 93.0301 122.817 93.6536L122.921 93.8615L122.973 94.1213C122.973 94.2772 123.025 94.3811 123.077 94.537C123.111 94.8834 123.146 95.2125 123.181 95.5243C123.215 96.1825 123.198 96.8233 123.129 97.4469C122.973 98.746 122.557 100.045 121.882 101.084C121.518 101.604 121.102 102.072 120.635 102.435C120.427 102.591 120.427 102.591 120.271 102.695C120.098 102.764 119.942 102.834 119.804 102.903C119.544 103.007 119.232 103.059 118.972 103.059C118.453 103.059 117.933 102.903 117.569 102.695C117.258 102.435 116.998 102.175 116.842 101.968C116.686 101.708 116.634 101.5 116.634 101.344C116.582 101.188 116.634 101.084 116.634 101.084C116.634 101.084 116.634 101.188 116.686 101.292C116.738 101.448 116.842 101.604 117.05 101.76C117.258 101.916 117.518 102.02 117.829 102.124C118.141 102.227 118.505 102.279 118.868 102.175C119.042 102.106 119.215 102.037 119.388 101.968C119.492 101.898 119.578 101.846 119.648 101.812C119.7 101.76 119.855 101.604 119.855 101.552C120.167 101.24 120.479 100.824 120.687 100.409C120.947 99.9411 121.102 99.4215 121.31 98.9018C121.449 98.3822 121.553 97.8453 121.622 97.291C121.691 96.7367 121.726 96.1652 121.726 95.5762C121.691 95.2991 121.674 95.0393 121.674 94.7968C121.674 94.6929 121.622 94.537 121.622 94.3811L121.57 94.1733L121.518 94.0174C121.31 93.0301 120.843 92.1467 120.271 91.6791C119.959 91.4192 119.648 91.2634 119.336 91.2634C119.024 91.2114 118.712 91.2634 118.453 91.3153C118.193 91.4192 117.985 91.4712 117.881 91.5232C117.777 91.6271 117.777 91.6791 117.777 91.6791Z" fill="#C29880"/>
<path d="M116.427 99.0576C116.479 98.7978 116.583 98.538 116.842 98.3301C117.102 98.1743 117.518 98.2262 117.726 98.1742C118.141 98.2262 118.401 98.4341 118.609 98.5899C118.817 98.6939 119.025 98.8498 119.128 98.9537C119.232 98.9883 119.284 98.9883 119.284 98.9537C119.319 98.9537 119.336 98.9537 119.336 98.9537C119.388 98.9537 119.232 98.9537 119.284 98.9537H119.336C119.388 98.9537 119.44 98.9537 119.388 98.9537C119.232 98.9537 119.284 98.9537 119.388 98.7458C119.44 98.5899 119.544 98.2782 119.596 98.1223C119.648 97.9664 119.7 97.7586 119.752 97.5507C119.804 97.135 119.856 96.7193 119.804 96.3036C119.804 96.0957 119.752 95.8879 119.752 95.732C119.7 95.5242 119.596 95.4202 119.544 95.2643V95.2124C119.596 95.2644 119.544 95.2124 119.492 95.2124C119.492 95.1604 119.44 95.1085 119.44 95.1085C119.388 95.0565 119.336 95.0045 119.284 94.9526C119.128 94.9006 119.025 94.8486 118.869 94.8486C118.713 94.9006 118.505 94.9526 118.401 95.0565C118.245 95.1604 118.089 95.3683 118.037 95.5761H117.83C117.864 95.5068 117.899 95.4202 117.934 95.3163H117.985L117.934 95.3683H117.985C117.985 95.4376 118.003 95.5068 118.037 95.5761H117.83C117.778 95.3163 117.778 95.0045 117.934 94.7447C118.037 94.4849 118.297 94.2251 118.609 94.0692C118.869 93.9133 119.284 93.8614 119.596 93.9653C119.804 94.0172 119.96 94.0692 120.116 94.1731C120.22 94.2251 120.272 94.2771 120.323 94.2771C120.323 94.329 120.323 94.2771 120.427 94.381L120.531 94.4849C120.791 94.7447 120.895 95.0045 121.051 95.3163C121.155 95.5934 121.224 95.8706 121.259 96.1477C121.363 96.702 121.345 97.2562 121.207 97.8105C121.155 98.1223 121.103 98.3821 120.999 98.6419C120.895 98.9537 120.791 99.1096 120.635 99.4213C120.479 99.6292 120.272 100.045 119.648 100.201C119.544 100.253 119.492 100.253 119.492 100.253H119.388H119.336H119.284H119.232L119.128 100.201C119.094 100.201 119.042 100.183 118.973 100.149C118.765 100.097 118.609 99.9929 118.505 99.889C118.245 99.6812 118.089 99.4733 117.934 99.2655C117.83 99.0576 117.674 98.9537 117.622 98.9017C117.31 98.7978 117.206 98.6939 116.998 98.6939C116.842 98.7458 116.635 98.8498 116.427 99.0576Z" fill="#C29880"/>
<path d="M135.858 178.56C135.338 168.635 126.402 167.128 126.402 167.128L90.7605 156.788H80.5253H70.2901L34.5968 167.128C34.5968 167.128 25.6605 168.635 25.1929 178.56C25.1929 178.56 24.4655 189.316 36.5711 189.213H80.5253H124.48C136.585 189.316 135.858 178.56 135.858 178.56Z" fill="#FBC2A2"/>
<path d="M64.1598 86.3787C64.1598 88.6131 62.9128 90.4318 61.3542 90.4318C59.8475 90.4318 58.5486 88.6131 58.5486 86.3787C58.5486 84.1443 59.8475 82.3256 61.3542 82.3256C62.9128 82.3256 64.1598 84.1443 64.1598 86.3787Z" fill="#3B2313"/>
<path d="M98.138 86.3787C98.138 88.6131 96.891 90.4318 95.3843 90.4318C93.8257 90.4318 92.5787 88.6131 92.5787 86.3787C92.5787 84.1443 93.8257 82.3256 95.3843 82.3256C96.891 82.3256 98.138 84.1443 98.138 86.3787Z" fill="#3B2313"/>
<path d="M74.1867 90.4319C73.7711 93.6536 73.7191 96.6674 72.8359 99.7852C71.9527 102.799 70.1862 106.177 70.4979 109.346C70.8097 112.828 78.8108 111.425 80.837 111.269C81.5124 111.165 81.6683 110.282 80.9929 110.022C79.0186 109.294 76.8884 109.502 74.8102 109.658C71.2253 109.866 72.0046 107.632 72.732 104.826C74.0309 99.9411 75.2259 95.5243 74.7063 90.4319C74.7063 90.0682 74.2387 90.1202 74.1867 90.4319Z" fill="#DA9D7B"/>
<path d="M88.007 78.7403L86.7081 73.7519C86.7081 73.7519 96.5277 71.0499 104.633 77.1814L103.905 79.5717C103.905 79.5717 96.3718 78.2727 88.007 78.7403Z" fill="#3B2313"/>
<path d="M69.5627 78.7403L70.8616 73.7519C70.8616 73.7519 61.042 71.0499 52.937 77.1814L53.6124 79.5717C53.6124 79.5717 61.1979 78.2727 69.5627 78.7403Z" fill="#3B2313"/>
<path d="M125.103 56.812C127.026 77.9607 119.908 88.3013 119.908 88.3013C117.622 87.7816 116.427 88.4052 116.427 88.4052L115.336 105.397L113.517 103.422L113.985 88.0415C113.881 77.7009 107.75 73.3361 107.75 73.3361C107.75 73.3361 113.985 62.8397 104.633 54.2139C73.2519 42.3145 52.9374 53.4864 52.9374 53.4864C45.9754 59.7219 47.2223 74.3753 47.2223 74.3753C43.4296 81.6501 45.1441 98.7977 45.1441 98.7977C44.053 97.0829 42.7022 89.9121 42.7022 89.9121C37.4547 56.0845 42.4424 42.1066 42.4424 42.1066C42.4424 42.1066 43.4296 18.6716 73.5117 18.3078C73.5117 18.3078 86.4486 15.294 80.5257 4.79758C80.5257 4.79758 90.7609 8.74673 93.9821 15.1381C93.9821 15.1381 99.6452 6.77215 93.7743 0.380768C93.7743 0.380768 111.907 5.88879 111.179 21.3736C111.179 21.3736 122.61 16.9048 118.869 7.49963C118.869 7.49963 131.806 20.4902 125.415 33.1171C125.415 33.1171 123.649 43.5096 125.103 56.812Z" fill="#3B2313"/>
<path d="M88.6308 117.92C88.423 122.752 83.6431 126.65 77.8241 126.65C71.9531 126.65 67.2252 122.752 66.9654 117.92H88.6308Z" fill="#FEFEFE"/>
<path d="M66.9654 117.92C66.9654 117.92 68.3162 117.712 70.3425 117.556C72.4207 117.4 75.1224 117.296 77.8241 117.296C80.5257 117.296 83.2274 117.4 85.2537 117.556C87.2799 117.712 88.6308 117.92 88.6308 117.92C88.6308 117.92 87.2799 118.128 85.2537 118.284C83.2274 118.44 80.5257 118.544 77.8241 118.544C75.1224 118.544 72.4207 118.44 70.3425 118.284C68.3162 118.128 66.9654 117.92 66.9654 117.92Z" fill="#D6A07F"/>
<path d="M88.6308 117.92C88.6308 117.92 88.6308 118.041 88.6308 118.284C88.6308 118.491 88.6308 118.803 88.5788 119.271C88.4749 120.102 88.1632 121.349 87.3319 122.596C86.9682 123.272 86.3967 123.896 85.7732 124.467C85.0978 125.039 84.3704 125.61 83.5391 126.026C82.7079 126.494 81.7727 126.857 80.7855 127.065C79.7984 127.325 78.8632 127.377 77.7721 127.429C76.8369 127.377 75.7458 127.325 74.8107 127.065C73.8235 126.857 72.8883 126.494 72.057 126.026C71.2257 125.61 70.4984 125.039 69.8229 124.467C69.1995 123.896 68.628 123.272 68.2643 122.596C67.433 121.349 67.1213 120.102 67.0174 119.271C66.9654 118.803 66.9654 118.491 66.9654 118.284C66.9654 118.041 66.9654 117.92 66.9654 117.92C67 117.92 67.0347 118.024 67.0693 118.232C67.1213 118.491 67.1732 118.803 67.3291 119.167C67.5889 119.946 68.0565 121.038 68.9916 122.077C69.4073 122.596 69.9788 123.116 70.5503 123.584C71.1738 123.999 71.9012 124.467 72.6805 124.779C73.4079 125.143 74.2911 125.402 75.1224 125.61C76.0056 125.818 76.8369 125.818 77.8241 125.87C78.6553 125.87 79.6425 125.818 80.4738 125.61C81.3051 125.402 82.1883 125.143 82.9157 124.779C83.695 124.467 84.4224 124.051 85.0459 123.584C85.6174 123.116 86.1889 122.596 86.6565 122.077C87.5397 121.038 88.0073 119.946 88.2671 119.167C88.4229 118.803 88.4749 118.491 88.5269 118.232C88.5961 118.024 88.6308 117.92 88.6308 117.92Z" fill="#D6A07F"/>
<path d="M80.5255 128.572C80.5255 128.572 80.1618 128.572 79.6423 128.52C79.1747 128.52 78.4992 128.52 77.8238 128.468C77.0964 128.52 76.421 128.52 75.9534 128.52C75.4339 128.572 75.0702 128.572 75.0702 128.572V128.78C75.0702 128.78 75.4339 129.352 75.9534 129.767C76.2132 130.027 76.473 130.183 76.7847 130.287C76.9406 130.339 77.1484 130.443 77.3043 130.443L77.8238 130.495L78.2914 130.443C78.4992 130.443 78.6551 130.339 78.811 130.287C79.1227 130.183 79.3998 130.01 79.6423 129.767C80.1618 129.352 80.5255 128.78 80.5255 128.78V128.572Z" fill="#D6A07F"/>
<path d="M121.83 197.89H144.586L135.338 176.17C132.221 167.544 121.778 170.038 121.778 170.038C112.738 173.572 114.037 182.302 114.037 182.302L121.83 197.89Z" fill="#FBC2A2"/>
<path d="M38.4414 197.89L45.7671 183.133C45.7671 183.133 47.118 174.403 38.0258 170.922C38.0258 170.922 27.6347 168.427 24.5174 177.001L15.5811 197.89H38.4414Z" fill="#FBC2A2"/>
<path d="M116.583 197.89H148.483L135.806 174.663C129.727 164.27 119.96 167.44 119.96 167.44C106.815 174.247 111.595 186.926 111.595 186.926L116.583 197.89Z" fill="#FAF1B7"/>
<path d="M41.2475 197.89L45.8715 187.809C45.8715 187.809 50.6514 175.079 37.5067 168.324C37.5067 168.324 27.7391 165.154 21.6084 175.546L9.45081 197.89H41.2475Z" fill="#FAF1B7"/>
<path d="M40.8836 191.239L40.6238 197.89H120.427L120.167 191.239C116.271 168.22 127.597 167.44 127.597 167.44L98.1384 158.555L90.8646 155.801L90.3451 156.164C89.4618 160.581 86.1886 164.374 80.3696 164.374C74.4987 164.374 71.1736 160.425 70.3942 155.956L70.1864 155.801L63.5361 158.139L31.9473 168.064C42.1825 173 40.8836 191.239 40.8836 191.239Z" fill="#C3B689"/>
<path d="M90.8643 145.512C90.8643 145.512 94.1895 158.607 80.0576 164.167L95.3845 176.326C95.3845 176.326 118.868 150.501 90.8643 145.512Z" fill="#454895"/>
<path d="M70.1863 145.512C70.1863 145.512 65.874 158.607 80.0578 164.167L65.4064 176.326C65.4064 176.326 42.1823 150.501 70.1863 145.512Z" fill="#454895"/>
<path d="M29.328 218.236V230H27.781V221.228L23.871 230H22.783L18.856 221.211V230H17.309V218.236H18.975L23.327 227.96L27.679 218.236H29.328ZM31.3736 225.308C31.3736 224.356 31.5662 223.523 31.9516 222.809C32.3369 222.084 32.8639 221.523 33.5326 221.126C34.2126 220.729 34.9662 220.531 35.7936 220.531C36.6096 220.531 37.3179 220.707 37.9186 221.058C38.5192 221.409 38.9669 221.851 39.2616 222.384V220.684H40.8256V230H39.2616V228.266C38.9556 228.81 38.4966 229.263 37.8846 229.626C37.2839 229.977 36.5812 230.153 35.7766 230.153C34.9492 230.153 34.2012 229.949 33.5326 229.541C32.8639 229.133 32.3369 228.561 31.9516 227.824C31.5662 227.087 31.3736 226.249 31.3736 225.308ZM39.2616 225.325C39.2616 224.622 39.1199 224.01 38.8366 223.489C38.5532 222.968 38.1679 222.571 37.6806 222.299C37.2046 222.016 36.6776 221.874 36.0996 221.874C35.5216 221.874 34.9946 222.01 34.5186 222.282C34.0426 222.554 33.6629 222.951 33.3796 223.472C33.0962 223.993 32.9546 224.605 32.9546 225.308C32.9546 226.022 33.0962 226.645 33.3796 227.178C33.6629 227.699 34.0426 228.102 34.5186 228.385C34.9946 228.657 35.5216 228.793 36.0996 228.793C36.6776 228.793 37.2046 228.657 37.6806 228.385C38.1679 228.102 38.5532 227.699 38.8366 227.178C39.1199 226.645 39.2616 226.028 39.2616 225.325ZM44.9869 217.42V230H43.4399V217.42H44.9869ZM56.1235 224.985C56.1235 225.28 56.1065 225.591 56.0725 225.92H48.6265C48.6831 226.838 48.9948 227.558 49.5615 228.079C50.1395 228.589 50.8365 228.844 51.6525 228.844C52.3211 228.844 52.8765 228.691 53.3185 228.385C53.7718 228.068 54.0891 227.648 54.2705 227.127H55.9365C55.6871 228.022 55.1885 228.753 54.4405 229.32C53.6925 229.875 52.7631 230.153 51.6525 230.153C50.7685 230.153 49.9751 229.955 49.2725 229.558C48.5811 229.161 48.0371 228.6 47.6405 227.875C47.2438 227.138 47.0455 226.288 47.0455 225.325C47.0455 224.362 47.2381 223.517 47.6235 222.792C48.0088 222.067 48.5471 221.511 49.2385 221.126C49.9411 220.729 50.7458 220.531 51.6525 220.531C52.5365 220.531 53.3185 220.724 53.9985 221.109C54.6785 221.494 55.1998 222.027 55.5625 222.707C55.9365 223.376 56.1235 224.135 56.1235 224.985ZM54.5255 224.662C54.5255 224.073 54.3951 223.568 54.1345 223.149C53.8738 222.718 53.5168 222.395 53.0635 222.18C52.6215 221.953 52.1285 221.84 51.5845 221.84C50.8025 221.84 50.1338 222.089 49.5785 222.588C49.0345 223.087 48.7228 223.778 48.6435 224.662H54.5255Z" fill="white"/>
<path fill-rule="evenodd" clip-rule="evenodd" d="M141.694 224.808C141.89 224.992 142 225.241 142 225.5C142 225.759 141.89 226.008 141.694 226.192L135.774 231.725C135.576 231.904 135.312 232.002 135.037 232C134.763 231.998 134.501 231.895 134.307 231.713C134.112 231.532 134.002 231.287 134 231.03C133.998 230.774 134.103 230.527 134.294 230.342L139.474 225.5L134.294 220.658C134.103 220.473 133.998 220.226 134 219.97C134.002 219.713 134.112 219.468 134.307 219.287C134.501 219.105 134.763 219.002 135.037 219C135.312 218.998 135.576 219.096 135.774 219.275L141.694 224.808Z" fill="white"/>
</svg>
