<svg role="img" width="17" height="17" viewBox="0 0 17 17" fill="none" xmlns="http://www.w3.org/2000/svg">
<title>quotes</title><path d="M3.1665 7.31768C3.1665 6.30806 3.1665 5.91213 3.39121 5.57558C3.48849 5.42988 3.61349 5.30478 3.75908 5.20742C4.09538 4.98254 4.56353 4.98254 5.49984 4.98254C6.43614 4.98254 6.9043 4.98254 7.24061 5.20742C7.38621 5.30478 7.51121 5.42988 7.60848 5.57558C7.83314 5.91213 7.83314 6.38065 7.83314 7.31768L7.83321 9.65281C7.83314 10.9663 7.55194 11.6335 6.99984 12.2381C6.44775 12.8428 5.37484 13.6492 3.92749 13.6492C3.05192 13.6492 3.06234 12.4362 3.73893 12.3283C6.26595 11.925 6.99984 9.25334 5.49984 9.32968C5.35762 9.33688 5.18971 9.38508 5.00906 9.43694C4.60792 9.55214 4.14397 9.68534 3.75908 9.42794C3.61349 9.33061 3.48849 9.20548 3.39121 9.05981C3.1665 8.72321 3.1665 8.25474 3.1665 7.31768Z" fill="#6A3AA2"/>
<path d="M9.1665 7.31768C9.1665 6.30806 9.1665 5.91213 9.39124 5.57558C9.4885 5.42988 9.6135 5.30478 9.7591 5.20742C10.0954 4.98254 10.5636 4.98254 11.4998 4.98254C12.4362 4.98254 12.9043 4.98254 13.2406 5.20742C13.3862 5.30478 13.5112 5.42988 13.6085 5.57558C13.8332 5.91213 13.8332 6.38065 13.8332 7.31768L13.8332 9.65281C13.8332 10.9663 13.552 11.6335 12.9998 12.2381C12.4478 12.8428 11.3748 13.6492 9.9275 13.6492C9.05197 13.6492 9.06237 12.4362 9.73897 12.3283C12.266 11.925 12.9998 9.25334 11.4998 9.32968C11.3576 9.33688 11.1898 9.38508 11.0091 9.43694C10.608 9.55214 10.144 9.68534 9.7591 9.42794C9.6135 9.33061 9.4885 9.20548 9.39124 9.05981C9.1665 8.72321 9.1665 8.25468 9.1665 7.31768Z" fill="#6A3AA2"/>
</svg>
